<mxfile host="app.diagrams.net" modified="2023-08-16T03:00:04.554Z" agent="Mozilla/5.0 (Windows NT 10.0; Win64; x64) AppleWebKit/537.36 (KHTML, like Gecko) Chrome/115.0.0.0 Safari/537.36 Edg/115.0.1901.203" etag="zhFt-gL5vzIu77d2Frba" version="21.6.8" type="github">
  <diagram name="Page-1" id="BoGZaKieZwsnOobpRuEj">
    <mxGraphModel dx="1508" dy="829" grid="1" gridSize="10" guides="1" tooltips="1" connect="1" arrows="1" fold="1" page="1" pageScale="1" pageWidth="827" pageHeight="1169" math="0" shadow="0">
      <root>
        <mxCell id="0" />
        <mxCell id="1" parent="0" />
        <mxCell id="ePDsQ7q0N0QleN-UyTnt-2" value="Release all Roles directly" style="rounded=1;whiteSpace=wrap;html=1;" vertex="1" parent="1">
          <mxGeometry x="209" y="500" width="120" height="60" as="geometry" />
        </mxCell>
        <mxCell id="ePDsQ7q0N0QleN-UyTnt-3" value="Gray Release for part of Roles for P release" style="rounded=1;whiteSpace=wrap;html=1;" vertex="1" parent="1">
          <mxGeometry x="499" y="500" width="120" height="60" as="geometry" />
        </mxCell>
        <mxCell id="ePDsQ7q0N0QleN-UyTnt-5" value="" style="endArrow=classic;html=1;rounded=0;exitX=0.5;exitY=1;exitDx=0;exitDy=0;entryX=0.5;entryY=0;entryDx=0;entryDy=0;" edge="1" parent="1" source="ePDsQ7q0N0QleN-UyTnt-3" target="ePDsQ7q0N0QleN-UyTnt-6">
          <mxGeometry width="50" height="50" relative="1" as="geometry">
            <mxPoint x="429" y="540" as="sourcePoint" />
            <mxPoint x="289" y="610" as="targetPoint" />
          </mxGeometry>
        </mxCell>
        <mxCell id="ePDsQ7q0N0QleN-UyTnt-6" value="Release all Roles for next release" style="rounded=1;whiteSpace=wrap;html=1;" vertex="1" parent="1">
          <mxGeometry x="499" y="630" width="120" height="60" as="geometry" />
        </mxCell>
        <mxCell id="ePDsQ7q0N0QleN-UyTnt-15" style="edgeStyle=orthogonalEdgeStyle;rounded=0;orthogonalLoop=1;jettySize=auto;html=1;entryX=0.5;entryY=0;entryDx=0;entryDy=0;" edge="1" parent="1" source="ePDsQ7q0N0QleN-UyTnt-7" target="ePDsQ7q0N0QleN-UyTnt-3">
          <mxGeometry relative="1" as="geometry" />
        </mxCell>
        <mxCell id="ePDsQ7q0N0QleN-UyTnt-7" value="Plan B" style="rounded=0;whiteSpace=wrap;html=1;" vertex="1" parent="1">
          <mxGeometry x="499" y="360" width="120" height="60" as="geometry" />
        </mxCell>
        <mxCell id="ePDsQ7q0N0QleN-UyTnt-14" style="edgeStyle=orthogonalEdgeStyle;rounded=0;orthogonalLoop=1;jettySize=auto;html=1;exitX=0.5;exitY=1;exitDx=0;exitDy=0;entryX=0.5;entryY=0;entryDx=0;entryDy=0;" edge="1" parent="1" source="ePDsQ7q0N0QleN-UyTnt-8" target="ePDsQ7q0N0QleN-UyTnt-2">
          <mxGeometry relative="1" as="geometry" />
        </mxCell>
        <mxCell id="ePDsQ7q0N0QleN-UyTnt-8" value="Plan A" style="rounded=0;whiteSpace=wrap;html=1;" vertex="1" parent="1">
          <mxGeometry x="209" y="360" width="120" height="60" as="geometry" />
        </mxCell>
        <mxCell id="ePDsQ7q0N0QleN-UyTnt-11" value="" style="edgeStyle=orthogonalEdgeStyle;rounded=0;orthogonalLoop=1;jettySize=auto;html=1;entryX=0.5;entryY=0;entryDx=0;entryDy=0;" edge="1" parent="1" source="ePDsQ7q0N0QleN-UyTnt-9" target="ePDsQ7q0N0QleN-UyTnt-7">
          <mxGeometry relative="1" as="geometry" />
        </mxCell>
        <mxCell id="ePDsQ7q0N0QleN-UyTnt-12" value="Recommend" style="edgeLabel;html=1;align=center;verticalAlign=middle;resizable=0;points=[];" vertex="1" connectable="0" parent="ePDsQ7q0N0QleN-UyTnt-11">
          <mxGeometry x="-0.2439" y="-1" relative="1" as="geometry">
            <mxPoint x="42" y="54" as="offset" />
          </mxGeometry>
        </mxCell>
        <mxCell id="ePDsQ7q0N0QleN-UyTnt-13" style="edgeStyle=orthogonalEdgeStyle;rounded=0;orthogonalLoop=1;jettySize=auto;html=1;exitX=0;exitY=0.5;exitDx=0;exitDy=0;entryX=0.5;entryY=0;entryDx=0;entryDy=0;" edge="1" parent="1" source="ePDsQ7q0N0QleN-UyTnt-9" target="ePDsQ7q0N0QleN-UyTnt-8">
          <mxGeometry relative="1" as="geometry" />
        </mxCell>
        <mxCell id="ePDsQ7q0N0QleN-UyTnt-9" value="Choose &lt;br&gt;Release&lt;br&gt;Plan" style="rhombus;whiteSpace=wrap;html=1;" vertex="1" parent="1">
          <mxGeometry x="349" y="190" width="130" height="70" as="geometry" />
        </mxCell>
        <mxCell id="ePDsQ7q0N0QleN-UyTnt-17" style="edgeStyle=orthogonalEdgeStyle;rounded=0;orthogonalLoop=1;jettySize=auto;html=1;exitX=0.5;exitY=1;exitDx=0;exitDy=0;exitPerimeter=0;entryX=0.5;entryY=0;entryDx=0;entryDy=0;" edge="1" parent="1" source="ePDsQ7q0N0QleN-UyTnt-16" target="ePDsQ7q0N0QleN-UyTnt-9">
          <mxGeometry relative="1" as="geometry" />
        </mxCell>
        <mxCell id="ePDsQ7q0N0QleN-UyTnt-16" value="Start" style="strokeWidth=2;html=1;shape=mxgraph.flowchart.terminator;whiteSpace=wrap;" vertex="1" parent="1">
          <mxGeometry x="364" y="100" width="100" height="50" as="geometry" />
        </mxCell>
      </root>
    </mxGraphModel>
  </diagram>
</mxfile>
